<svg width="32" height="32" viewBox="0 0 32 32" fill="none" xmlns="http://www.w3.org/2000/svg">
<path d="M15.4666 22.3999C15.3266 22.9077 15.0878 23.3829 14.7641 23.7985C14.4404 24.214 14.038 24.5617 13.5799 24.8217C13.1218 25.0817 12.6169 25.2489 12.0942 25.3138C11.5715 25.3787 11.0411 25.34 10.5333 25.1999C10.0255 25.0599 9.5503 24.8211 9.13478 24.4974C8.71926 24.1737 8.37157 23.7713 8.11157 23.3132C7.85157 22.8551 7.68434 22.3502 7.61943 21.8275C7.55453 21.3048 7.59322 20.7744 7.7333 20.2666M4 14.6667L28 8V24L4 18.6667V14.6667Z" stroke="white" stroke-width="1.5" stroke-linecap="round" stroke-linejoin="round"/>
</svg>
