<svg width="32" height="32" viewBox="0 0 32 32" fill="none" xmlns="http://www.w3.org/2000/svg">
<path d="M10.6667 16H10.6801M16.0001 16H16.0134M21.3334 16H21.3467M10.5334 26.6667C13.0782 27.9721 16.0055 28.3257 18.7879 27.6637C21.5703 27.0018 24.0248 25.3678 25.7091 23.0563C27.3934 20.7447 28.1966 17.9077 27.9742 15.0563C27.7517 12.2049 26.5182 9.52667 24.4958 7.5043C22.4735 5.48193 19.7953 4.24838 16.9439 4.02593C14.0925 3.80348 11.2554 4.60677 8.94384 6.29104C6.63231 7.9753 4.99834 10.4298 4.33638 13.2122C3.67442 15.9946 4.028 18.9219 5.33341 21.4667L2.66675 29.3334L10.5334 26.6667Z" stroke="white" stroke-width="1.5" stroke-linecap="round" stroke-linejoin="round"/>
</svg>
