<svg width="24" height="27" viewBox="0 0 24 27" fill="none" xmlns="http://www.w3.org/2000/svg">
<path d="M1.33788 16.0035C1.08557 16.0043 0.838188 15.9336 0.624485 15.7994C0.410781 15.6653 0.239525 15.4733 0.130613 15.2457C0.0217015 15.0181 -0.0203957 14.7643 0.00921296 14.5137C0.0388216 14.2631 0.138921 14.0261 0.29788 13.8301L13.4979 0.230139C13.5969 0.115848 13.7318 0.0386143 13.8805 0.0111162C14.0292 -0.0163819 14.1828 0.00748911 14.3162 0.0788112C14.4495 0.150133 14.5547 0.264668 14.6143 0.403616C14.674 0.542565 14.6847 0.69767 14.6445 0.843473L12.0845 8.87014C12.0091 9.07217 11.9837 9.2895 12.0107 9.50348C12.0376 9.71746 12.1161 9.92171 12.2393 10.0987C12.3626 10.2757 12.5269 10.4202 12.7182 10.5197C12.9096 10.6192 13.1222 10.6708 13.3379 10.6701H22.6712C22.9235 10.6693 23.1709 10.74 23.3846 10.8742C23.5983 11.0083 23.7696 11.2003 23.8785 11.4279C23.9874 11.6555 24.0295 11.9094 23.9999 12.1599C23.9703 12.4105 23.8702 12.6475 23.7112 12.8435L10.5112 26.4435C10.4122 26.5578 10.2773 26.635 10.1286 26.6625C9.97988 26.69 9.82625 26.6661 9.69291 26.5948C9.55957 26.5235 9.45443 26.4089 9.39477 26.27C9.3351 26.131 9.32444 25.9759 9.36455 25.8301L11.9245 17.8035C12 17.6014 12.0254 17.3841 11.9984 17.1701C11.9715 16.9561 11.893 16.7519 11.7698 16.5749C11.6465 16.3979 11.4822 16.2535 11.2908 16.1539C11.0995 16.0544 10.8869 16.0028 10.6712 16.0035H1.33788Z" fill="white"/>
</svg>
