<svg width="26" height="19" viewBox="0 0 26 19" fill="none" xmlns="http://www.w3.org/2000/svg">
<path d="M12.2166 15.1499C12.0766 15.6577 11.8378 16.1329 11.5141 16.5485C11.1904 16.964 10.788 17.3117 10.3299 17.5717C9.87176 17.8317 9.36693 17.9989 8.8442 18.0638C8.32147 18.1287 7.79107 18.09 7.2833 17.9499C6.77552 17.8099 6.3003 17.5711 5.88478 17.2474C5.46926 16.9237 5.12157 16.5213 4.86157 16.0632C4.60157 15.6051 4.43434 15.1002 4.36943 14.5775C4.30453 14.0548 4.34322 13.5244 4.4833 13.0166M0.75 7.41667L24.75 0.75V16.75L0.75 11.4167V7.41667Z" stroke="white" stroke-width="1.5" stroke-linecap="round" stroke-linejoin="round"/>
</svg>
